<?xml version="1.0" standalone="no"?><!DOCTYPE svg PUBLIC "-//W3C//DTD SVG 1.1//EN" "http://www.w3.org/Graphics/SVG/1.1/DTD/svg11.dtd"><svg class="icon" width="200px" height="200.00px" viewBox="0 0 1024 1024" version="1.1" xmlns="http://www.w3.org/2000/svg"><path fill="#8a8a8a" d="M806.7 375.4h-78.8v-48c0-114.9-92.6-208-206.8-208-114.2 0-206.7 93.1-206.7 208v48h-78.8c-21.7 0-39.4 17.6-39.4 39.4v413.5c0 21.8 17.6 39.4 39.4 39.4h571.1c21.8 0 39.4-17.6 39.4-39.4V414.7c0-21.7-17.6-39.3-39.4-39.3z m-433.2-48c0-82.1 66.2-148.9 147.7-148.9 81.5 0 147.7 66.8 147.7 148.9v48H373.5v-48zM787 808.6H255.3V434.4H787v374.2z"  /><path fill="#8a8a8a" d="M491.6 645.6v103.9c0 10.9 8.8 19.7 19.7 19.7H531c10.9 0 19.7-8.8 19.7-19.7V645.6c34.3-12.2 59.1-44.7 59.1-83.2 0-48.9-39.7-88.6-88.7-88.6-48.9 0-88.6 39.7-88.6 88.6 0.1 38.6 24.8 71 59.1 83.2z m29.6-112.7c16.3 0 29.6 13.2 29.6 29.5S537.5 592 521.2 592s-29.5-13.2-29.5-29.6c-0.1-16.3 13.2-29.5 29.5-29.5z"  /></svg>