<?xml version="1.0" standalone="no"?><!DOCTYPE svg PUBLIC "-//W3C//DTD SVG 1.1//EN" "http://www.w3.org/Graphics/SVG/1.1/DTD/svg11.dtd"><svg class="icon" width="200px" height="200.00px" viewBox="0 0 1024 1024" version="1.1" xmlns="http://www.w3.org/2000/svg"><path fill="#8a8a8a" d="M805.56544 134.55872H218.43456c-75.74528 0-137.25184 61.50656-137.25184 137.25184v480.37888c0 75.74528 61.51168 137.25184 137.25184 137.25184h587.13088c75.74528 0 137.25696-61.50656 137.25696-137.25184V271.81056c-0.512-75.74528-61.51168-137.25184-137.25696-137.25184zM138.68544 695.28064V328.70912l183.53664 183.04512-183.53664 183.5264z m453.4016-154.94144c-21.1968 21.19168-49.77664 33.01888-80.3328 33.01888s-58.64448-11.83232-80.32768-33.01888L142.62784 251.04896c11.33568-36.96128 44.35456-61.11232 84.76672-61.11232h569.21088c40.41728 0 73.43616 23.6544 84.76672 61.11232l-289.28512 289.29024z m-236.15488 10.25024L399.36 590.08c34.77504 32.64 71.48544 42.51648 112.88576 42.51648 41.39008 0 77.19424-13.39392 109.19424-42.51648l41.99936-39.49056 218.92096 218.91072c-10.34752 38.93248-43.86304 64.07168-85.75488 64.07168H227.39456c-41.89184 0-75.40224-25.1392-85.75488-63.58016l214.29248-219.40224z m529.37728-221.88032v366.57152l-183.5264-183.5264 183.5264-183.04512z" /></svg>